<svg xmlns="http://www.w3.org/2000/svg" width="96" height="96" fill="none"><g filter="url(#a)"><circle cx="48" cy="46" r="40" fill="#190422"/></g><path fill="#D9BBFF" stroke="#D9BBFF" stroke-width="1.5" d="M40.894 27.404c-3.88 0-7.367.723-9.932 1.973-2.5 1.184-4.21 2.894-4.276 4.933v17.628c0 2.105 1.71 3.88 4.276 5.13 2.565 1.25 6.051 1.974 9.932 1.974 1.447 0 2.829-.132 4.144-.33 2.434 3.027 6.183 5 10.327 5 7.3 0 13.22-5.92 13.22-13.287 0-7.302-5.92-13.287-13.22-13.287h-.33V34.244c-.131-1.974-1.775-3.684-4.275-4.933-2.565-1.184-5.985-1.908-9.866-1.908Zm0 1.052c3.684 0 7.038.724 9.406 1.841 2.302 1.119 3.683 2.566 3.749 4.079v.131c0 1.052-.658 2.17-1.907 3.092a12.562 12.562 0 0 0-4.342 2.038c-2.038.592-4.34.921-6.84.921-3.75 0-7.104-.723-9.472-1.841-2.236-1.052-3.552-2.434-3.683-3.88v-.396c.065-1.446 1.38-2.894 3.749-4.012 2.302-1.25 5.657-1.973 9.34-1.973ZM27.74 37.204c.723.921 1.907 1.776 3.223 2.434 2.565 1.25 6.051 1.974 9.932 1.974 1.776 0 3.486-.132 5.065-.46-1.382 1.446-2.5 3.157-3.092 5.064-.657.066-1.315.066-1.973.066-3.75 0-7.038-.724-9.472-1.842-2.368-1.118-3.683-2.631-3.683-4.144v-3.092Zm27.691.987c6.775 0 12.17 5.46 12.17 12.234 0 6.775-5.46 12.235-12.17 12.235-6.709 0-12.169-5.46-12.169-12.235 0-6.709 5.394-12.234 12.17-12.234ZM27.74 42.993c.723.92 1.907 1.776 3.223 2.434 2.565 1.25 6.051 1.973 9.932 1.973.592 0 1.118 0 1.644-.066a12.594 12.594 0 0 0-.394 3.158c0 .657.065 1.315.131 1.973-.46.066-.92.066-1.447.066-3.749 0-7.037-.724-9.471-1.842-2.368-1.118-3.684-2.631-3.684-4.21V42.993h.066Zm0 6.117c.723.92 1.907 1.776 3.223 2.434 2.565 1.25 6.051 1.973 9.932 1.973.526 0 1.052 0 1.644-.066.395 1.579.987 3.026 1.908 4.342-1.118.131-2.236.263-3.486.263-3.75 0-7.104-.724-9.472-1.842-2.368-1.118-3.684-2.631-3.684-4.144l-.065-2.96Z"/><defs><filter id="a" width="96" height="96" x="0" y="0" color-interpolation-filters="sRGB" filterUnits="userSpaceOnUse"><feFlood flood-opacity="0" result="BackgroundImageFix"/><feColorMatrix in="SourceAlpha" result="hardAlpha" values="0 0 0 0 0 0 0 0 0 0 0 0 0 0 0 0 0 0 127 0"/><feOffset dy="2"/><feGaussianBlur stdDeviation="4"/><feComposite in2="hardAlpha" operator="out"/><feColorMatrix values="0 0 0 0 0.370833 0 0 0 0 0.128247 0 0 0 0 0.300177 0 0 0 0.2 0"/><feBlend in2="BackgroundImageFix" result="effect1_dropShadow_1_84"/><feBlend in="SourceGraphic" in2="effect1_dropShadow_1_84" result="shape"/></filter></defs></svg>