<svg xmlns="http://www.w3.org/2000/svg" width="96" height="96" fill="none"><g filter="url(#a)"><circle cx="48" cy="46" r="40" fill="#190422"/></g><path fill="#D9BBFF" stroke="#D9BBFF" stroke-width="1.4" d="M47.43 21.331a.507.507 0 0 0-.508.507v4.057a.507.507 0 1 0 1.014 0v-4.057a.507.507 0 0 0-.507-.507Zm-14.343 5.943a.514.514 0 0 0-.365.143.521.521 0 0 0 0 .729l2.869 2.868a.521.521 0 0 0 .729 0 .522.522 0 0 0 0-.729l-2.87-2.868a.514.514 0 0 0-.364-.143Zm28.686 0a.515.515 0 0 0-.365.143l-2.869 2.869a.522.522 0 0 0 0 .729c.198.198.531.198.73 0l2.868-2.87a.521.521 0 0 0 0-.728.513.513 0 0 0-.365-.143ZM47.43 29.445c-6.447 0-12.679 5.007-12.679 12.092 0 4.53 1.73 7.333 3.392 9.684 1.661 2.35 3.201 4.23 3.201 7.132v6.085c0 1.444 1.194 2.536 2.536 2.536h7.1c1.344 0 2.537-1.092 2.537-2.536v-6.085c0-2.902 1.54-4.781 3.2-7.132 1.662-2.35 3.392-5.154 3.392-9.683 0-7.085-6.231-12.092-12.678-12.093h-.001Zm0 1.014c5.922 0 11.664 4.59 11.664 11.078 0 4.277-1.566 6.783-3.201 9.097-1.549 2.192-3.206 4.228-3.376 7.21H42.343c-.17-2.982-1.827-5.018-3.376-7.21-1.635-2.314-3.201-4.82-3.201-9.097 0-6.489 5.742-11.078 11.664-11.078Zm-1.078 2.6a9.126 9.126 0 0 0-8.05 9.064c0 .934.135 1.83.396 2.679a.548.548 0 0 0 .65.348c.257-.079.411-.392.332-.65a8.062 8.062 0 0 1-.364-2.377 8.118 8.118 0 0 1 7.163-8.067c.266-.02.497-.273.476-.538-.069-.413-.282-.48-.603-.46Zm-19.208 8.558a.507.507 0 1 0 0 1.014h4.058a.507.507 0 1 0 0-1.014h-4.058Zm36.516 0a.507.507 0 1 0 0 1.014h4.057a.507.507 0 1 0 0-1.014h-4.058ZM42.358 58.86h10.143v3.043H42.359V58.86Zm0 4.057h10.143v1.522c0 .887-.724 1.521-1.522 1.521h-7.1a1.518 1.518 0 0 1-1.521-1.521v-1.522Z"/><defs><filter id="a" width="96" height="96" x="0" y="0" color-interpolation-filters="sRGB" filterUnits="userSpaceOnUse"><feFlood flood-opacity="0" result="BackgroundImageFix"/><feColorMatrix in="SourceAlpha" result="hardAlpha" values="0 0 0 0 0 0 0 0 0 0 0 0 0 0 0 0 0 0 127 0"/><feOffset dy="2"/><feGaussianBlur stdDeviation="4"/><feComposite in2="hardAlpha" operator="out"/><feColorMatrix values="0 0 0 0 0.370833 0 0 0 0 0.128247 0 0 0 0 0.300177 0 0 0 0.2 0"/><feBlend in2="BackgroundImageFix" result="effect1_dropShadow_1_68"/><feBlend in="SourceGraphic" in2="effect1_dropShadow_1_68" result="shape"/></filter></defs></svg>