<svg xmlns="http://www.w3.org/2000/svg" width="96" height="96" fill="none"><g filter="url(#a)"><circle cx="48" cy="46" r="40" fill="#190422"/></g><path fill="#D9BBFF" stroke="#D9BBFF" stroke-width="2" d="M31.728 30.73a.529.529 0 0 0-.462.545v28.537c0 .292.237.528.529.528H67.73a.528.528 0 1 0 0-1.057H32.323V31.275a.528.528 0 0 0-.595-.545Zm27.447 7.943a.53.53 0 1 0 .1 1.057h5.02L53.46 49.573l-7.58-6.556a.529.529 0 0 0-.694.016l-9.512 8.455a.527.527 0 1 0 .694.793l9.165-8.158 7.58 6.573c.206.178.513.17.71-.017L65.087 40.44v5.103a.53.53 0 0 0 .905.379.53.53 0 0 0 .152-.379v-6.341a.529.529 0 0 0-.529-.529h-6.34a.556.556 0 0 0-.1 0Z"/><defs><filter id="a" width="96" height="96" x="0" y="0" color-interpolation-filters="sRGB" filterUnits="userSpaceOnUse"><feFlood flood-opacity="0" result="BackgroundImageFix"/><feColorMatrix in="SourceAlpha" result="hardAlpha" values="0 0 0 0 0 0 0 0 0 0 0 0 0 0 0 0 0 0 127 0"/><feOffset dy="2"/><feGaussianBlur stdDeviation="4"/><feComposite in2="hardAlpha" operator="out"/><feColorMatrix values="0 0 0 0 0.370833 0 0 0 0 0.128247 0 0 0 0 0.300177 0 0 0 0.2 0"/><feBlend in2="BackgroundImageFix" result="effect1_dropShadow_1_93"/><feBlend in="SourceGraphic" in2="effect1_dropShadow_1_93" result="shape"/></filter></defs></svg>