<svg xmlns="http://www.w3.org/2000/svg" xml:space="preserve" width="800" height="800" fill="#fffffffffff" stroke="#fffffffffff" viewBox="0 0 21.903 21.903"><path d="M2.67 1.211c.682 0 1.216.215 1.604.643s.596.968.624 1.615c0 .639-.218 1.178-.657 1.616-.439.437-1.039.656-1.798.656h-.027c-.741 0-1.328-.219-1.765-.656A2.215 2.215 0 0 1 0 3.469c0-.657.238-1.197.718-1.622.48-.424 1.132-.636 1.952-.636zM.287 7.535H4.97v13.156H.287V7.535zm21.616 5.613v7.543h-4.682v-7.036c0-.895-.184-1.612-.55-2.158-.364-.541-.973-.812-1.833-.812-.655 0-1.181.166-1.573.5-.393.332-.678.699-.85 1.102a1.914 1.914 0 0 0-.11.486 5.633 5.633 0 0 0-.026.568v7.351H7.568c.02-2.226.031-4.268.031-6.12v-4.464c0-.647-.007-1.199-.018-1.657-.006-.454-.013-.761-.013-.916h4.711v1.863l-.026.054h.026v-.054c.146-.229.333-.468.561-.719.231-.25.507-.484.843-.7.333-.214.734-.39 1.204-.533.473-.141 1.011-.211 1.624-.211.762 0 1.474.116 2.138.349a4.386 4.386 0 0 1 1.715 1.096c.481.495.858 1.111 1.132 1.847.273.734.407 1.608.407 2.621z" style="fill:#fff"/></svg>