<svg xmlns="http://www.w3.org/2000/svg" width="136" height="52" fill="none"><path fill="#fff" d="M25.632 51 9.376 31.096V51H.416V6.328h8.96V26.36L25.632 6.328h10.816L18.016 28.472 36.96 51H25.632ZM88.21 11.32c-1.579 0-2.901-.49-3.968-1.472-1.024-1.024-1.536-2.283-1.536-3.776 0-1.493.512-2.73 1.536-3.712C85.309 1.336 86.632.824 88.21.824c1.579 0 2.88.512 3.904 1.536 1.067.981 1.6 2.219 1.6 3.712 0 1.493-.533 2.752-1.6 3.776-1.024.981-2.325 1.472-3.904 1.472Zm4.416 4.224V51h-8.96V15.544h8.96Zm28.501-.512c4.224 0 7.637 1.344 10.24 4.032 2.602 2.645 3.904 6.357 3.904 11.136V51h-8.96V31.416c0-2.816-.704-4.97-2.112-6.464-1.408-1.536-3.328-2.304-5.76-2.304-2.475 0-4.438.768-5.888 2.304-1.408 1.493-2.112 3.648-2.112 6.464V51h-8.96V15.544h8.96v4.416c1.194-1.536 2.709-2.73 4.544-3.584 1.877-.896 3.925-1.344 6.144-1.344Z"/><path fill="#BC8AFC" d="M58.597 51.576c-3.413 0-6.485-.747-9.215-2.24-2.731-1.536-4.886-3.69-6.465-6.464-1.535-2.773-2.303-5.973-2.303-9.6s.789-6.827 2.367-9.6c1.622-2.773 3.82-4.907 6.593-6.4 2.773-1.536 5.866-2.304 9.28-2.304 3.413 0 6.506.768 9.28 2.304 2.773 1.493 4.949 3.627 6.528 6.4 1.62 2.773 2.431 5.973 2.431 9.6s-.832 6.827-2.496 9.6a17.006 17.006 0 0 1-6.655 6.464c-2.774 1.493-5.888 2.24-9.344 2.24Zm0-7.808a9.342 9.342 0 0 0 4.544-1.152c1.451-.81 2.603-2.005 3.456-3.584.854-1.579 1.28-3.499 1.28-5.76 0-3.37-.895-5.952-2.688-7.744-1.749-1.835-3.903-2.752-6.463-2.752s-4.715.917-6.465 2.752c-1.706 1.792-2.56 4.373-2.56 7.744 0 3.37.832 5.973 2.496 7.808 1.707 1.792 3.84 2.688 6.4 2.688Z"/></svg>