<svg xmlns="http://www.w3.org/2000/svg" width="96" height="96" fill="none"><g filter="url(#a)"><circle cx="48" cy="46" r="40" fill="#190422"/></g><path fill="#D9BBFF" stroke="#D9BBFF" stroke-width="1.5" d="M65.924 33H30.076A2.08 2.08 0 0 0 28 35.076v21.04a2.08 2.08 0 0 0 2.076 2.075h35.848A2.08 2.08 0 0 0 68 56.115v-21.04A2.08 2.08 0 0 0 65.924 33ZM28.89 39.733h38.222v5.418H28.889v-5.418Zm1.187-5.844h35.849a1.192 1.192 0 0 1 1.186 1.187v3.768H28.89v-3.768a1.192 1.192 0 0 1 1.186-1.187Zm35.849 23.413h-35.85a1.193 1.193 0 0 1-1.186-1.186V46.04h38.222v10.076a1.192 1.192 0 0 1-1.187 1.186Z"/><path fill="#D9BBFF" stroke="#D9BBFF" stroke-width="1.5" d="M61.484 48.67h-5.182a1.194 1.194 0 0 0-1.191 1.192v3.288a1.19 1.19 0 0 0 1.19 1.192h5.183a1.191 1.191 0 0 0 1.182-1.191v-3.29a1.196 1.196 0 0 0-1.182-1.19Zm.294 4.48a.307.307 0 0 1-.303.303h-5.173A.303.303 0 0 1 56 53.15v-3.288c0-.167.135-.303.302-.303h5.182c.166.003.3.137.302.303l-.008 3.288Z"/><defs><filter id="a" width="96" height="96" x="0" y="0" color-interpolation-filters="sRGB" filterUnits="userSpaceOnUse"><feFlood flood-opacity="0" result="BackgroundImageFix"/><feColorMatrix in="SourceAlpha" result="hardAlpha" values="0 0 0 0 0 0 0 0 0 0 0 0 0 0 0 0 0 0 127 0"/><feOffset dy="2"/><feGaussianBlur stdDeviation="4"/><feComposite in2="hardAlpha" operator="out"/><feColorMatrix values="0 0 0 0 0.370833 0 0 0 0 0.128247 0 0 0 0 0.300177 0 0 0 0.2 0"/><feBlend in2="BackgroundImageFix" result="effect1_dropShadow_1_75"/><feBlend in="SourceGraphic" in2="effect1_dropShadow_1_75" result="shape"/></filter></defs></svg>